<?xml version="1.0" encoding="utf-8"?>
<!-- Svg Vector Icons : http://www.onlinewebfonts.com/icon -->
<!DOCTYPE svg PUBLIC "-//W3C//DTD SVG 1.1//EN" "http://www.w3.org/Graphics/SVG/1.1/DTD/svg11.dtd">
<svg version="1.1" xmlns="http://www.w3.org/2000/svg" xmlns:xlink="http://www.w3.org/1999/xlink" x="0px" y="0px" viewBox="0 0 256 256" enable-background="new 0 0 256 256" xml:space="preserve">
<metadata> Svg Vector Icons : http://www.onlinewebfonts.com/icon </metadata>
<g><g><path fill="#000000" d="M10,36.2v52.4h26.2V36.2h52.4V10H36.2C21.8,10,10,21.8,10,36.2z M36.2,167.3H10v52.5c0,14.4,11.8,26.2,26.2,26.2h52.4v-26.2H36.2V167.3z M219.8,219.8h-52.5V246h52.5c14.4,0,26.2-11.8,26.2-26.2v-52.5h-26.2V219.8z M219.8,10h-52.5v26.2h52.5v52.4H246V36.2C246,21.8,234.2,10,219.8,10z"/><path fill="#000000" d="M10,114.9h236v26.2H10V114.9z"/></g></g>
</svg>